<svg width="110" height="110" viewBox="0 0 110 110" fill="none" xmlns="http://www.w3.org/2000/svg">
<g clip-path="url(#clip0_41_104)">
<path d="M74.2228 43.4894L66.5016 35.7681C65.8353 35.1023 64.7549 35.1023 64.0889 35.7683C63.4226 36.4348 63.4226 37.515 64.0889 38.1813L71.8102 45.9025C72.5041 46.5963 73.6759 46.5499 74.3137 45.8046C74.8854 45.1366 74.8442 44.1105 74.2228 43.4894Z" fill="white"/>
<path d="M45.9111 71.8016L38.1899 64.0803C37.5236 63.4143 36.4432 63.4143 35.7772 64.0803C35.1109 64.747 35.1109 65.827 35.7772 66.4932L43.4984 74.2145C43.8314 74.5475 44.2682 74.7142 44.7048 74.7142C46.1969 74.7145 46.9622 72.8528 45.9111 71.8016Z" fill="white"/>
<path d="M108.969 96.2683L96.0998 83.3993C95.8811 83.1806 95.607 83.0255 95.3073 82.9505L85.0124 80.3767C84.3704 80.2166 83.7663 80.4515 83.3116 80.9061L71.5519 69.1464C74.4757 66.1368 77.2502 62.9601 79.8146 59.6831C80.3953 58.941 80.2645 57.8685 79.5224 57.288C78.7802 56.7069 77.7079 56.8384 77.1274 57.5802C74.6476 60.7487 71.9653 63.8217 69.139 66.7334L66.3409 63.9353C70.8146 58.2703 70.4416 50.004 65.2149 44.7772C62.4864 42.0489 58.8587 40.5461 55.0003 40.5461C51.7128 40.5461 48.5952 41.6403 46.0562 43.6504L43.2604 40.8546C49.4806 34.8151 56.2999 29.5609 63.5978 25.1529C68.627 26.5982 73.2346 29.311 76.9578 33.0347C80.6824 36.759 83.3959 41.3683 84.8409 46.3999C83.6522 48.3647 82.4009 50.2996 81.0856 52.2022C80.5434 52.9866 80.7765 54.1253 81.5925 54.6229C82.3491 55.0844 83.3868 54.874 83.8926 54.1425C93.2003 40.6767 99.4469 25.6645 102.459 9.52344C102.676 8.36436 101.627 7.31828 100.469 7.53313C77.912 11.7426 57.335 22.4197 40.8477 38.4425L29.1013 26.6962C29.5559 26.2415 29.7912 25.6372 29.6305 24.9954L27.0568 14.6999C26.9819 14.4 26.827 14.1263 26.608 13.9073L13.7391 1.03817C12.3643 -0.336617 10.1271 -0.336617 8.75255 1.03817L1.03105 8.75967C-0.343743 10.1347 -0.343743 12.3716 1.03105 13.7464L13.9 26.6152C14.1187 26.8339 14.3929 26.989 14.6926 27.064L24.9875 29.6378C25.6298 29.7983 26.2338 29.563 26.6882 29.1084L38.4356 40.8559C36.6269 42.7184 34.8686 44.6445 33.1999 46.6062C32.5977 47.3143 32.6858 48.4092 33.3941 49.0112C34.1022 49.6136 35.1969 49.5253 35.7991 48.8169C37.4089 46.9244 39.104 45.066 40.8485 43.2684L43.6456 46.0654C39.1865 51.7298 39.564 59.9845 44.7854 65.2057C47.5139 67.934 51.1415 69.4368 54.9999 69.4368C58.2799 69.4368 61.3907 68.3476 63.9263 66.3461L66.724 69.1438C60.5085 75.1766 53.6939 80.4252 46.4021 84.83C41.373 83.3847 36.7654 80.6719 33.0424 76.9482C29.3228 73.2286 26.6115 68.6264 25.1647 63.6025C27.1166 60.3601 29.2291 57.2171 31.4983 54.1951C32.0563 53.452 31.902 52.3642 31.1584 51.8063C30.4151 51.2483 29.3277 51.4032 28.7696 52.1464C26.3197 55.4092 24.0469 58.8087 21.9562 62.3199C21.9206 62.3676 21.8838 62.4151 21.8529 62.4673C18.9847 67.2888 16.4431 72.3763 14.2994 77.5882C14.2685 77.6634 14.245 77.7406 14.2253 77.8181C11.2387 85.1142 8.9863 92.7135 7.54082 100.459C7.32426 101.619 8.3727 102.665 9.53114 102.45C32.0808 98.2412 52.6521 87.5699 69.1367 71.5558L80.8987 83.3179C80.4441 83.7725 80.2089 84.3769 80.3696 85.0186L82.9432 95.3137C83.0182 95.6137 83.1731 95.8874 83.392 96.1063L96.2609 108.975C97.6179 110.332 99.8905 110.332 101.247 108.975L108.969 101.254C110.344 99.8802 110.344 97.6433 108.969 96.2683ZM98.6131 11.3791C97.4164 17.0935 95.7952 22.656 93.7617 28.0484C92.1649 25.7566 90.365 23.5994 88.3787 21.6132C86.3957 19.6301 84.2419 17.833 81.9547 16.2382C87.346 14.204 92.91 12.5751 98.6131 11.3791ZM78.1004 17.7778C80.9404 19.5446 83.5832 21.6434 85.9656 24.0263C88.3478 26.4083 90.4471 29.0511 92.2137 31.8911C90.6989 35.4951 88.9891 39.0334 87.1092 42.456C85.3845 38.0401 82.7513 34.0021 79.3701 30.6211C75.9891 27.2399 71.9511 24.6068 67.5354 22.8822C70.9581 21.0024 74.4964 19.2928 78.1004 17.7778ZM24.8781 26.0935L15.9786 23.8682L3.44375 11.3333C3.43558 11.3251 3.41044 11.3 3.41044 11.2527C3.41044 11.2057 3.43537 11.1807 3.44375 11.1724L11.165 3.4513C11.1732 3.44314 11.1983 3.418 11.2456 3.418C11.2929 3.418 11.3178 3.44292 11.3262 3.4513L23.861 15.986L26.086 24.8854L24.8781 26.0935ZM54.9999 66.0249C52.0527 66.0249 49.282 64.8772 47.1981 62.7932C43.3094 58.9045 42.9366 52.8113 46.0787 48.4992L61.4927 63.9132C59.618 65.2837 57.3664 66.0249 54.9999 66.0249ZM63.9082 61.5024L48.4888 46.083C50.3672 44.7042 52.6263 43.9582 55.0001 43.9582C57.9474 43.9582 60.718 45.1059 62.802 47.1899C66.696 51.0842 67.0645 57.1894 63.9082 61.5024ZM11.3878 98.6043C12.5785 92.9446 14.2135 87.3772 16.2598 81.9655C17.8514 84.2458 19.6439 86.393 21.6211 88.3702C23.6041 90.3532 25.7575 92.1502 28.0449 93.7452C22.654 95.7793 17.0904 97.4082 11.3878 98.6043ZM31.8994 92.2058C29.0594 90.4389 26.4166 88.3401 24.0342 85.9573C21.6567 83.58 19.5616 80.9428 17.7971 78.1092C19.3141 74.5018 21.0189 70.9749 22.8985 67.5462C24.6231 71.9548 27.2534 75.9861 30.6297 79.3622C34.0109 82.7432 38.0487 85.3765 42.4644 87.1011C39.0419 88.981 35.5037 90.6905 31.8994 92.2058ZM106.556 98.8419L98.8348 106.563C98.8266 106.571 98.8015 106.596 98.7542 106.596C98.7069 106.596 98.682 106.572 98.6737 106.563L86.1388 94.0285L83.9138 85.129L85.1217 83.921L94.021 86.1461L106.556 98.681C106.564 98.6891 106.589 98.7143 106.589 98.7616C106.589 98.8088 106.564 98.8337 106.556 98.8419Z" fill="white"/>
</g>
<defs>
<clipPath id="clip0_41_104">
<rect width="110" height="110" fill="white"/>
</clipPath>
</defs>
</svg>
