<svg width="110" height="110" viewBox="0 0 110 110" fill="none" xmlns="http://www.w3.org/2000/svg">
<g clip-path="url(#clip0_41_146)">
<path d="M109.02 39.1348L99.4032 25.1195L101.343 21.3481C101.794 20.4722 101.449 19.3968 100.573 18.9462C99.6969 18.4955 98.6215 18.8406 98.1709 19.7165L96.1797 23.5875C95.4263 23.685 94.2694 23.8551 92.7735 24.1343C92.9766 23.441 92.7455 22.6651 92.1338 22.2061C91.346 21.6151 90.2275 21.7749 89.6368 22.5628C89.6016 22.6097 88.8164 23.662 87.9881 25.1756C87.3743 25.3271 86.7363 25.491 86.074 25.6691C85.9769 25.2035 85.6968 24.7771 85.2585 24.5098C84.4176 23.997 83.3201 24.2627 82.8069 25.1036C82.7829 25.1426 82.3584 25.8427 81.8485 26.9076C81.0107 27.1735 80.1477 27.4596 79.2626 27.7666C79.1542 27.1637 78.7394 26.6322 78.1228 26.4061C77.1982 26.0669 76.1734 26.5416 75.8341 27.4662C75.8191 27.5069 75.5687 28.1953 75.2945 29.2353C74.3302 29.6146 73.3466 30.0182 72.3461 30.4476C72.2607 29.713 71.7223 29.0795 70.9594 28.9116C69.998 28.6997 69.0458 29.3078 68.8339 30.2698C68.8244 30.313 68.6608 31.0659 68.5269 32.1789C67.3302 32.7506 66.116 33.358 64.8875 34.0058C62.1717 35.4383 59.2984 36.3836 56.3458 36.8152C56.3432 36.8157 56.3408 36.816 56.3382 36.8164C56.0133 35.9651 55.3867 35.2671 54.5494 34.8585C53.5301 34.3615 52.3632 34.3658 51.3477 34.8707C47.2127 36.9265 42.3759 36.7425 38.4092 34.3791L35.7039 32.7672C35.1241 32.4217 34.3985 32.4329 33.8297 32.797C33.2611 33.1608 32.9465 33.8148 33.0173 34.4864L33.3719 37.8507C33.4344 38.4447 33.5324 39.034 33.6611 39.6164C33.2383 39.6171 32.6599 39.5957 31.8454 39.5334C28.775 39.2977 25.7751 39.8692 23.1549 41.1315C22.1727 40.736 20.4267 40.1629 18.294 40.0323C15.2444 39.8464 10.798 40.5394 6.93146 44.9034C3.1812 49.1362 3.18025 53.5547 3.17953 57.8277C3.17882 61.7877 3.17811 65.528 0.336991 69.4668C-0.153136 70.146 -0.104385 71.0746 0.453755 71.6991C0.802147 72.0884 1.28966 72.2941 1.78454 72.2941C2.08323 72.2941 2.38454 72.2192 2.65944 72.0642C8.06843 69.0159 11.9367 64.2338 14.2945 60.6146C14.5975 61.597 14.9994 62.5589 15.5071 63.4845C15.9984 64.3805 16.5497 65.1781 17.1547 65.869L13.7849 72.0349C12.6394 74.131 12.5409 76.6387 13.4387 78.8001L4.11888 85.9145C3.33601 86.5121 3.18572 87.6315 3.78333 88.4143C4.13434 88.8743 4.66513 89.1159 5.20235 89.1159C5.57975 89.1159 5.96025 88.9965 6.28319 88.7499L26.6909 72.4461C26.9287 72.2468 27.1605 72.0409 27.3884 71.8311L37.3234 88.2039C37.6615 88.7466 38.2434 89.0445 38.8389 89.0445C39.1609 89.0445 39.4869 88.9573 39.7804 88.7744C40.6166 88.2536 40.872 87.1535 40.3509 86.3173L33 74.5208L37.7495 63.7984C40.9887 65.1779 45.2453 66.3301 50.4257 66.3301C53.684 66.3301 57.3084 65.8726 61.2742 64.7306C62.2183 66.6302 63.4244 68.5826 64.6958 70.4338L64.5412 77.8889L58.4409 84.364C57.7655 85.0809 57.799 86.2098 58.516 86.8852C58.8606 87.2098 59.3001 87.3706 59.7389 87.3706C60.2133 87.3706 60.6865 87.1825 61.0373 86.8101L67.6085 79.8353C67.9114 79.5136 68.0843 79.091 68.0936 78.6491L68.1671 75.1084C69.9316 77.3293 71.4524 79.0472 72.1366 79.8042L73.6959 89.7437C73.8339 90.6231 74.5927 91.2509 75.4557 91.2509C75.5475 91.2509 75.6407 91.2438 75.7344 91.2291C76.7076 91.0764 77.3727 90.1639 77.22 89.1905L75.5982 78.8534L75.6027 63.411L78.5729 60.2167C80.7047 57.9245 81.6799 54.8222 81.3066 51.7761C82.9734 52.266 84.6908 52.5105 86.4064 52.5105C89.8237 52.5105 93.2335 51.5419 96.2208 49.6182L100.634 46.7762C100.928 46.9405 101.214 47.1012 101.489 47.2549C102.816 47.9997 104.354 48.1814 105.818 47.7671C107.289 47.351 108.509 46.384 109.259 45.038L109.295 44.9724C110.325 43.1203 110.22 40.8832 109.02 39.1348ZM52.9363 38.0645C52.9482 38.0585 52.9608 38.0521 52.9858 38.0645C52.9929 38.0678 53.0136 38.1472 53.0397 38.2592C53.1915 38.9096 53.2367 39.5853 53.132 40.2449C52.6942 43.0016 50.4666 45.2397 47.5977 45.5895L45.0489 45.9003C42.7266 46.1835 40.4123 45.1907 39.0763 43.2701C37.9181 41.6055 37.1804 39.6618 36.9395 37.6492C41.8843 40.4397 47.8334 40.6017 52.9363 38.0645ZM13.6838 54.4643C13.1416 55.6072 10.6123 60.6365 6.20162 64.9306C6.74597 62.4431 6.74621 60.056 6.74669 57.8284C6.7474 53.8903 6.74787 50.4893 9.60183 47.2682C12.9179 43.5255 16.744 43.288 19.3356 43.7281C19.2781 43.7814 19.2182 43.8316 19.1613 43.8861L18.5582 44.462C15.7121 47.1907 14.0505 50.7676 13.6838 54.4643ZM30.8121 70.6525L29.9165 69.0281C31.581 66.8033 32.7938 64.2466 33.4466 61.5354C33.7888 61.7539 34.1557 61.9789 34.5529 62.2074L30.8121 70.6525ZM75.9606 57.7882L72.5131 61.4957C72.2063 61.8255 72.0358 62.2593 72.0355 62.7097L72.032 74.2192C68.301 69.6785 63.4223 62.9175 62.9507 58.7599C62.8325 57.7176 61.8385 56.9868 60.7857 57.221C59.8678 57.4251 59.3022 58.3406 59.4197 59.2736C59.5051 59.9532 59.6727 60.6697 59.9049 61.4108C46.5471 65.1166 37.7074 60.2814 34.296 57.8039L35.2444 53.6092C35.4618 52.6484 34.8589 51.6934 33.8979 51.4762C32.9374 51.2586 31.9821 51.862 31.765 52.8227L30.0316 60.4892C29.2185 64.0747 27.2183 67.3503 24.4005 69.7118L16.4398 76.375C16.3159 75.4841 16.4712 74.5578 16.9152 73.7455L20.924 66.4098C21.3268 65.6726 21.1606 64.7544 20.5252 64.205C19.8255 63.6003 19.1896 62.7808 18.6348 61.7689C16.002 56.9692 16.9858 50.9112 21.0248 47.0387L21.6277 46.4627C24.166 44.0295 27.7905 42.8007 31.5738 43.0892C33.2899 43.2204 34.2285 43.1955 34.8727 43.1177C35.2097 43.818 35.5964 44.4946 36.0328 45.1393C37.8368 47.8049 40.7576 49.3921 43.9028 49.5041V54.2962H42.3763C41.3913 54.2962 40.5928 55.0948 40.5928 56.0798C40.5928 57.0648 41.3913 57.8633 42.3763 57.8633H48.9965C49.9815 57.8633 50.7801 57.0648 50.7801 56.0798C50.7801 55.0948 49.9815 54.2962 48.9965 54.2962H47.47V49.1978L48.0291 49.1295C52.65 48.5659 56.2007 44.8592 56.7113 40.3658C56.7627 40.3581 58.356 40.0942 59.0944 39.9272L77.4586 50.1455C77.4683 50.5947 77.5354 51.0418 77.6379 51.4808C78.1601 53.7169 77.5406 56.0893 75.9606 57.7882ZM94.2896 46.6202C90.8965 48.8052 86.825 49.4558 83.0169 48.5421L88.819 42.9645C89.9208 41.9053 91.5545 41.6949 92.8867 42.4414C94.1419 43.1431 95.6239 43.9719 97.1105 44.8038L94.2896 46.6202ZM106.174 43.2452L106.138 43.3101C105.836 43.8532 105.329 44.2333 104.721 44.3671C104.194 44.4834 103.641 44.3729 103.17 44.1086C100.613 42.6751 97.1592 40.7432 94.6289 39.3284C91.9172 37.8088 88.589 38.2366 86.3465 40.3929L79.352 47.1167C79.3425 47.1115 79.333 47.1067 79.3237 47.1015L63.7793 38.4523C64.7179 38.0699 65.643 37.6402 66.5516 37.1608C67.1702 36.8347 67.7842 36.5225 68.3959 36.2167C68.4991 37.7306 68.7944 39.0426 69.2876 40.1272C69.5866 40.7845 70.2344 41.1731 70.9124 41.1731C71.1592 41.1731 71.4101 41.1215 71.6496 41.0128C72.5464 40.6052 72.9428 39.5477 72.5352 38.6509C72.0208 37.5192 71.8907 35.9729 71.9259 34.5366C72.8282 34.1292 73.7178 33.7442 74.5949 33.3787C74.5028 34.8612 74.6224 36.1739 74.9594 37.2954C75.1915 38.0676 75.9 38.5662 76.6669 38.566C76.8369 38.566 77.0098 38.5415 77.181 38.4901C78.1244 38.2067 78.6593 37.2119 78.3758 36.2688C78.0001 35.0184 78.1061 33.3725 78.3603 31.8976C79.0186 31.6538 79.6673 31.4205 80.3035 31.1998C80.026 32.4267 79.9349 33.5549 80.0326 34.5737C80.1213 35.4961 80.8978 36.187 81.806 36.187C81.863 36.187 81.9206 36.1843 81.9786 36.1786C82.9591 36.0845 83.6778 35.2131 83.5836 34.2326C83.4564 32.9076 83.9004 31.2764 84.4521 29.8603C85.0825 29.6719 85.6949 29.4964 86.2901 29.3314C86.0782 30.1746 85.97 30.9742 85.97 31.7242C85.97 32.7092 86.7686 33.5078 87.7536 33.5078C88.7386 33.5078 89.5372 32.7092 89.5372 31.7242C89.5372 30.6572 89.9217 29.4296 90.4268 28.2852C93.2116 27.6498 95.3129 27.3121 96.472 27.1518L106.079 41.1527C106.508 41.7779 106.545 42.5776 106.174 43.2452Z" fill="white"/>
</g>
<defs>
<clipPath id="clip0_41_146">
<rect width="110" height="110" fill="white"/>
</clipPath>
</defs>
</svg>
