<svg width="110" height="110" viewBox="0 0 110 110" fill="none" xmlns="http://www.w3.org/2000/svg">
<path d="M61.0007 24.9375C61.7233 25.0642 62.4589 25.1286 63.1872 25.1286C69.2889 25.1286 74.4881 20.7601 75.5497 14.7414C76.1322 11.4367 75.3941 8.10391 73.4701 5.35619C71.5462 2.60761 68.6657 0.773634 65.3606 0.192435C64.6367 0.0644334 63.8998 0 63.1694 0C57.0668 0 51.8689 4.36677 50.8103 10.3816C50.2261 13.6867 50.9651 17.0212 52.8903 19.7707C54.8151 22.5184 57.6943 24.3532 61.0007 24.9375ZM55.0465 11.128C55.7427 7.17244 59.159 4.30104 63.1699 4.30104C63.6507 4.30104 64.1368 4.34385 64.6151 4.42818C66.7885 4.81045 68.6817 6.01609 69.947 7.82283C71.2119 9.62956 71.6976 11.8212 71.3144 13.9942C70.616 17.9536 67.1985 20.8271 63.1876 20.8271C62.7076 20.8271 62.2224 20.7848 61.7467 20.7013C59.5737 20.3177 57.68 19.1108 56.4139 17.3032C55.1477 15.4956 54.662 13.3027 55.0465 11.128Z" fill="white"/>
<path d="M53.539 71.1009C53.0222 70.0315 51.7362 69.5834 50.6667 70.1002C49.5973 70.617 49.1493 71.903 49.6661 72.972L66.9744 108.785C67.3455 109.553 68.1131 110 68.9122 110C69.2261 110 69.5449 109.931 69.8467 109.785C70.9161 109.268 71.3637 107.982 70.8469 106.913L53.539 71.1009Z" fill="white"/>
<path d="M54.0861 33.9706L57.1689 34.515L53.9282 52.898C53.7219 54.0678 54.5029 55.183 55.6727 55.3897L76.1314 58.9993C76.2576 59.0218 76.3835 59.0322 76.5076 59.0322C77.5312 59.0322 78.4389 58.2983 78.6231 57.2548C78.8294 56.0851 78.0484 54.9698 76.8786 54.7631L58.5376 51.5272L61.7783 33.1442C61.9846 31.9744 61.2036 30.8596 60.0343 30.6529C60.0338 30.6529 60.0338 30.6525 60.0334 30.6525H60.0325L54.8324 29.734C48.1919 28.5655 41.8376 33.0136 40.6675 39.6494L36.7349 61.9594C36.0529 65.8284 37.2771 69.7415 39.9613 72.5429L23.3517 106.912C22.835 107.981 23.283 109.267 24.3524 109.784C24.6542 109.93 24.9725 109.999 25.2869 109.999C26.0861 109.999 26.8536 109.551 27.2247 108.784L44.517 73.0017H44.5166C44.9685 72.1057 44.7423 70.9861 43.9224 70.343C41.5933 68.5164 40.4625 65.5901 40.9706 62.7057L44.9036 40.3962C45.6621 36.096 49.782 33.2129 54.0861 33.9706Z" fill="white"/>
<path d="M89.7415 39.0321C88.5718 38.8258 87.4565 39.6068 87.2502 40.7765L75.4905 107.476C75.2842 108.645 76.0652 109.761 77.235 109.967C77.3612 109.989 77.4866 110 77.6107 110C78.6348 110 79.5425 109.266 79.7262 108.222L91.486 41.5233C91.6923 40.3536 90.9113 39.2379 89.7415 39.0321Z" fill="white"/>
<path d="M32.2401 63.7534C32.6781 63.7534 33.1097 63.6193 33.4738 63.3646C33.9409 63.0373 34.2591 62.5382 34.3582 61.9761L39.2992 33.9397C39.5051 32.7704 38.7245 31.6552 37.5552 31.4489L25.9507 29.3991C25.3889 29.2997 24.8108 29.4277 24.3433 29.755C23.8758 30.0824 23.5576 30.5814 23.4585 31.1436L18.5132 59.1825C18.4141 59.7442 18.5421 60.3224 18.8695 60.7894C19.1968 61.2569 19.6959 61.5752 20.2576 61.6742L31.8664 63.7214C31.991 63.7426 32.1155 63.7534 32.2401 63.7534ZM23.1234 57.8117L27.3211 34.0089L34.6898 35.3106L30.4952 59.1116L23.1234 57.8117Z" fill="white"/>
</svg>
