<svg width="110" height="110" viewBox="0 0 110 110" fill="none" xmlns="http://www.w3.org/2000/svg">
<path d="M107.319 94.3516L89.4939 76.5263C89.4939 76.5263 89.4939 76.5263 89.4937 76.5263C86.4788 73.5114 81.8689 73.0398 78.3551 75.1112L57.2942 54.0508V34.375C57.2942 29.3205 53.1818 25.2083 48.1271 25.2083C43.0723 25.2083 38.9599 29.3205 38.9599 34.375V35.7175L3.91233 0.67099C3.25715 0.0153446 2.27127 -0.179676 1.41465 0.174157C0.558479 0.528907 0 1.36445 0 2.29143V58.4375C0 70.4419 9.76685 80.2081 21.7717 80.2081C33.7766 80.2081 43.5435 70.4419 43.5435 58.4375V46.7825L52.7106 55.9492V71.4342C50.0429 72.38 48.1271 74.9288 48.1271 77.9164C48.1271 80.9043 50.0429 83.4529 52.7106 84.3986V100.833C52.7106 103.361 50.6545 105.417 48.1271 105.417C45.5996 105.417 43.5435 103.361 43.5435 100.833V89.375C43.5435 88.448 42.985 87.6125 42.1289 87.2577C41.2722 86.9037 40.2866 87.0991 39.6312 87.7546L32.7559 94.6296C31.861 95.5245 31.861 96.9755 32.7559 97.8707C33.6511 98.7653 35.1019 98.7653 35.997 97.8707L38.9599 94.9078V100.833C38.9599 105.888 43.0723 110 48.1271 110C53.1818 110 57.2942 105.888 57.2942 100.833V84.3989C59.9619 83.4531 61.8775 80.9045 61.8775 77.9167C61.8775 74.929 59.9619 72.3802 57.2942 71.4345V60.533L75.1142 78.3523C73.0432 81.8661 73.5148 86.4754 76.5295 89.4905L94.3552 107.316C97.9293 110.89 103.745 110.89 107.319 107.316C110.894 103.741 110.894 97.9254 107.319 94.3516ZM38.9599 58.4375C38.9599 67.9147 31.2494 75.6248 21.7717 75.6248C12.2941 75.6248 4.58356 67.9147 4.58356 58.4375L4.58333 7.82397L38.9599 42.1994V58.4375ZM43.5435 40.3008V34.375C43.5435 31.8477 45.5996 29.7917 48.1271 29.7917C50.6545 29.7917 52.7106 31.8477 52.7106 34.375V49.4677L43.5435 40.3008ZM55.0023 80.2081C53.7387 80.2081 52.7106 79.1801 52.7106 77.9164C52.7106 76.6528 53.7389 75.6248 55.0023 75.6248C56.2657 75.6248 57.2937 76.6528 57.2937 77.9164C57.2937 79.1801 56.2659 80.2081 55.0023 80.2081ZM104.078 104.074C102.292 105.861 99.3834 105.861 97.5966 104.074L79.7709 86.2494C77.9889 84.4674 77.9838 81.5707 79.7557 79.7825C79.7608 79.7777 79.7658 79.7725 79.7709 79.7676C79.7757 79.7626 79.7809 79.7573 79.7858 79.7525C81.5742 77.9804 84.4711 77.9859 86.2528 79.7674L104.079 97.5927C105.865 99.3795 105.865 102.287 104.078 104.074Z" fill="white"/>
</svg>
