<svg width="110" height="110" viewBox="0 0 110 110" fill="none" xmlns="http://www.w3.org/2000/svg">
<g clip-path="url(#clip0_41_54)">
<path d="M10.9039 28.8314C12.1689 29.1706 13.4505 29.3373 14.7245 29.3373C17.2655 29.3373 19.7735 28.6717 22.0322 27.3666C24.476 25.9568 26.4504 23.8777 27.7412 21.3587C28.2031 20.4568 27.8476 19.3531 26.9457 18.891C26.0455 18.4308 24.9401 18.7846 24.478 19.6866C23.5099 21.5767 22.0305 23.135 20.1989 24.191C17.656 25.6613 14.6916 26.0517 11.8536 25.289C9.01547 24.5283 6.64317 22.7096 5.17472 20.1648C2.14242 14.9127 3.94839 8.17159 9.19895 5.1393C9.84434 4.76719 10.5209 4.46469 11.2193 4.2318C9.2924 8.01948 9.30529 12.6541 11.5255 16.4985C12.6878 18.5133 14.3726 20.1725 16.3986 21.2981C17.2859 21.7912 18.4005 21.4704 18.8918 20.5867C19.3849 19.7012 19.0641 18.5848 18.1805 18.0935C16.7339 17.2904 15.5332 16.1062 14.7009 14.6652C12.532 10.9106 13.3093 6.09986 16.549 3.22719C17.1063 2.73412 17.308 1.95123 17.0622 1.24913C16.8147 0.545085 16.1676 0.0629766 15.4232 0.0262384C12.5943 -0.116847 9.8076 0.554109 7.36569 1.96391C0.364157 6.00834 -2.04295 14.9952 1.99955 21.9987C3.95741 25.3921 7.11991 27.8177 10.9039 28.8314Z" fill="white"/>
<path d="M31.1989 7.33373H33.0322V9.16699C33.0322 10.1789 33.8535 11.0003 34.8654 11.0003C35.8774 11.0003 36.6987 10.1789 36.6987 9.16699V7.33373H38.532C39.5439 7.33373 40.3652 6.51239 40.3652 5.50048C40.3652 4.48856 39.5439 3.66722 38.532 3.66722H36.6987V1.83375C36.6987 0.821834 35.8774 0.000488281 34.8654 0.000488281C33.8535 0.000488281 33.0322 0.821834 33.0322 1.83375V3.667H31.1989C30.187 3.667 29.3657 4.48835 29.3657 5.50026C29.3657 6.51239 30.187 7.33373 31.1989 7.33373Z" fill="white"/>
<path d="M51.3656 14.667C51.3656 15.6789 52.1869 16.5003 53.1989 16.5003C54.2108 16.5003 55.0321 15.6789 55.0321 14.667C56.044 14.667 56.8654 13.8457 56.8654 12.8338C56.8654 11.8218 56.044 11.0005 55.0321 11.0005C55.0321 9.98858 54.2108 9.16724 53.1989 9.16724C52.1869 9.16724 51.3656 9.98858 51.3656 11.0005C50.3537 11.0005 49.5323 11.8218 49.5323 12.8338C49.5323 13.8457 50.3535 14.667 51.3656 14.667Z" fill="white"/>
<path d="M75.9561 20.1266L54.0698 33.5558C53.2064 34.0856 52.9368 35.215 53.4668 36.0766C53.8114 36.6412 54.4147 36.951 55.0306 36.951C55.357 36.951 55.6887 36.8648 55.9875 36.6815L77.8719 23.2523C78.7354 22.7225 79.0067 21.5931 78.4769 20.7316C77.9471 19.8681 76.8196 19.5968 75.9561 20.1266Z" fill="white"/>
<path d="M69.6989 82.0124V59.6221C69.6989 58.6102 68.8775 57.7888 67.8656 57.7888C66.8537 57.7888 66.0323 58.6102 66.0323 59.6221V82.5001C66.0323 82.8191 66.1148 83.1326 66.2743 83.4095L80.9409 109.076C81.2783 109.668 81.8979 110 82.534 110C82.8421 110 83.1556 109.923 83.4415 109.758C84.3215 109.256 84.6259 108.136 84.1234 107.258L69.6989 82.0124Z" fill="white"/>
<path d="M47.7777 37.4297L43.1687 40.4437C42.3198 40.9973 42.0833 42.1341 42.6369 42.981C42.9889 43.52 43.5756 43.8116 44.1733 43.8116C44.5179 43.8116 44.8664 43.7145 45.1762 43.5127L49.7852 40.497C50.6341 39.9433 50.8706 38.8066 50.317 37.9597C49.7614 37.1106 48.6285 36.8741 47.7777 37.4297Z" fill="white"/>
<path d="M62.3656 63.3638C62.3656 62.3519 61.5443 61.5305 60.5323 61.5305C59.5204 61.5305 58.6991 62.3519 58.6991 63.3638V82.0124L44.2745 107.257C43.7722 108.135 44.0764 109.256 44.9564 109.758C45.2424 109.923 45.5558 110 45.8639 110C46.5 110 47.1197 109.668 47.457 109.076L62.1237 83.4091C62.2831 83.1322 62.3656 82.8187 62.3656 82.4997V63.3638Z" fill="white"/>
<path d="M109.471 30.4136L92.9711 1.83381C92.4817 0.986901 91.6915 0.379968 90.7436 0.125164C89.7994 -0.125988 88.8094 0.00420719 87.9624 0.491902L81.6136 4.15863C80.7648 4.64805 80.158 5.43824 79.903 6.3842C79.6499 7.33208 79.7801 8.32015 80.2698 9.16728L92.1865 29.8088C92.6924 30.6832 93.8126 30.9857 94.6909 30.4797C95.5673 29.9738 95.8678 28.8517 95.3619 27.9753L83.4451 7.3338L89.7957 3.66707L106.296 32.2468L99.9449 35.9136L99.0282 34.3259C98.9712 34.2288 98.8851 34.1665 98.8155 34.084C98.731 33.9849 98.6597 33.8713 98.5587 33.7943C98.4743 33.7284 98.3735 33.6972 98.2782 33.6495C98.1645 33.589 98.0582 33.514 97.9335 33.4809C97.8216 33.4478 97.7043 33.457 97.587 33.4478C97.4697 33.4368 97.356 33.4093 97.2368 33.4222C97.1103 33.4368 96.9912 33.4974 96.8664 33.5378C96.7637 33.5726 96.6593 33.5799 96.5603 33.6332L28.9233 70.5676C28.4998 70.8131 28.0065 70.8774 27.5317 70.7508C27.0586 70.6226 26.6646 70.3201 26.4208 69.8964L24.5875 66.723V66.7212C24.5875 66.7193 24.5856 66.7193 24.5856 66.7193L17.2523 54.018C17.0085 53.5945 16.9425 53.0995 17.0691 52.6284C17.1956 52.1553 17.4998 51.7593 17.9637 51.4899L77.3805 15.0686C78.2459 14.5388 78.5154 13.4094 77.9875 12.5478C77.4577 11.6844 76.3282 11.413 75.4667 11.9428L16.0905 48.3399C14.8182 49.0731 13.9087 50.2593 13.5274 51.6783C13.148 53.0974 13.3441 54.5804 14.0774 55.851L14.9941 57.4404L4.38644 63.5637L3.47336 61.9869C2.96547 61.1106 1.84721 60.8064 0.969146 61.3141C0.0927995 61.8219 -0.207766 62.9421 0.29819 63.8202L7.62607 76.5106V76.5125L9.46491 79.6969C9.80587 80.2854 10.4218 80.6136 11.0543 80.6136C11.3661 80.6136 11.6812 80.5348 11.9691 80.3681C12.8472 79.8621 13.146 78.7419 12.6401 77.8639L11.718 76.2669L22.3274 70.1418L23.2441 71.7294C23.9793 73.0017 25.1635 73.9112 26.5826 74.2906C27.061 74.4189 27.5451 74.4814 28.0254 74.4814C28.9714 74.4814 29.901 74.2375 30.7185 73.7627L96.7478 37.7084L96.7697 37.7468C97.4499 38.922 98.6838 39.5784 99.9524 39.5784C100.574 39.5784 101.203 39.4207 101.778 39.0889L108.131 35.4222C109.88 34.4084 110.483 32.1607 109.471 30.4136ZM9.88472 73.0898L6.21992 66.741L16.8276 60.6158L20.4943 66.9647L9.88472 73.0898Z" fill="white"/>
<path d="M64.1989 88.0002C63.1869 88.0002 62.3656 88.8216 62.3656 89.8335V104.5C62.3656 105.512 63.1869 106.333 64.1989 106.333C65.2108 106.333 66.0321 105.512 66.0321 104.5V89.8335C66.0323 88.8216 65.211 88.0002 64.1989 88.0002Z" fill="white"/>
</g>
<defs>
<clipPath id="clip0_41_54">
<rect width="110" height="110" fill="white"/>
</clipPath>
</defs>
</svg>
