<svg width="150" height="150" viewBox="0 0 150 150" fill="none" xmlns="http://www.w3.org/2000/svg">
<path d="M69.2871 25.5V53.625C69.2871 62.4141 67.749 71.7158 64.6729 81.5303C61.7432 91.1982 57.4219 100.573 51.709 109.655C45.9961 118.591 39.1113 126.428 31.0547 133.166L7.76367 117.126C14.6484 107.458 19.8486 97.5703 23.3643 87.4629C27.0264 77.209 28.8574 66.1494 28.8574 54.2842V25.5H69.2871ZM136.743 25.5V53.625C136.743 62.4141 135.205 71.7158 132.129 81.5303C129.199 91.1982 124.878 100.573 119.165 109.655C113.452 118.591 106.567 126.428 98.5107 133.166L75.2197 117.126C82.1045 107.458 87.3047 97.5703 90.8203 87.4629C94.4824 77.209 96.3135 66.1494 96.3135 54.2842V25.5H136.743Z" fill="#D14949"/>
</svg>
