<svg width="150" height="150" viewBox="0 0 150 150" fill="none" xmlns="http://www.w3.org/2000/svg">
<path d="M13.9893 125.233V98.6465C13.9893 89.7109 15.4541 80.4092 18.3838 70.7412C21.46 60.9268 25.8545 51.5518 31.5674 42.6162C37.2803 33.5342 44.165 25.6973 52.2217 19.1055L75.293 35.1455C68.5547 44.8135 63.3545 54.7744 59.6924 65.0283C56.0303 75.1357 54.1992 86.1221 54.1992 97.9873V125.233H13.9893ZM83.2031 125.233V98.6465C83.2031 89.7109 84.668 80.4092 87.5977 70.7412C90.6738 60.9268 95.0684 51.5518 100.781 42.6162C106.494 33.5342 113.379 25.6973 121.436 19.1055L144.507 35.1455C137.769 44.8135 132.568 54.7744 128.906 65.0283C125.244 75.1357 123.413 86.1221 123.413 97.9873V125.233H83.2031Z" fill="#D14949"/>
</svg>
